<?xml version="1.0" encoding="UTF-8" standalone="no"?> <svg xmlns="http://www.w3.org/2000/svg" width="48" height="48" viewBox="0 0 48 48">
  <defs>
    <style>
      .a {
        fill: #d3d4ed;
      }
    </style>
  </defs>
  <title>33 Enable</title>
  <path class="a" d="M24,0A24,24,0,1,0,48,24,24,24,0,0,0,24,0ZM22,9a2,2,0,0,1,4,0V24a2,2,0,0,1-4,0Zm1.22,30A15.11,15.11,0,0,1,9,24.54a15,15,0,0,1,5.8-12.39A1.9,1.9,0,0,1,16,11.74a2,2,0,0,1,2,2,2,2,0,0,1-.74,1.55,11,11,0,1,0,13.49,0A2,2,0,0,1,30,13.76a2,2,0,0,1,3.19-1.61A15,15,0,0,1,23.22,39Z"/>
</svg>
