<?xml version="1.0" encoding="UTF-8" standalone="no"?> <svg width="24" height="24" viewBox="0 0 24 24" fill="none" xmlns="http://www.w3.org/2000/svg">
<path fill-rule="evenodd" clip-rule="evenodd" d="M6.8284 3C6.56318 3 6.30883 3.10536 6.12129 3.29289L4.41418 5H19.5858L17.8787 3.29289C17.6911 3.10536 17.4368 3 17.1715 3H6.8284ZM20.8672 7H3.13275L4.77326 20.124C4.83581 20.6245 5.26121 21 5.76554 21H18.2344C18.7387 21 19.1641 20.6245 19.2267 20.124L20.8672 7ZM4.70708 1.87868C5.26969 1.31607 6.03275 1 6.8284 1H17.1715C17.9672 1 18.7303 1.31607 19.2929 1.87868L22.0154 4.60123C22.3143 4.90013 22.5426 5.25454 22.6915 5.63875C22.8686 6.09583 22.9333 6.59551 22.8709 7.09465L21.2112 20.3721C21.0236 21.8734 19.7474 23 18.2344 23H5.76554C4.25257 23 2.97636 21.8734 2.7887 20.3721L1.12902 7.09465C1.06663 6.59551 1.13139 6.09582 1.30846 5.63875C1.45731 5.25454 1.68563 4.90013 1.98453 4.60122L4.70708 1.87868ZM7.99997 9C8.55226 9 8.99997 9.44772 8.99997 10V11C8.99997 12.6569 10.3431 14 12 14C13.6568 14 15 12.6569 15 11V10C15 9.44772 15.4477 9 16 9C16.5523 9 17 9.44772 17 10V11C17 13.7614 14.7614 16 12 16C9.23855 16 6.99997 13.7614 6.99997 11V10C6.99997 9.44772 7.44769 9 7.99997 9Z" fill="#293644"/>
</svg>
