<?xml version="1.0" encoding="utf-8"?>
<!-- Generator: Adobe Illustrator 23.0.3, SVG Export Plug-In . SVG Version: 6.00 Build 0)  -->
<svg version="1.1" id="Layer_1" xmlns="http://www.w3.org/2000/svg" xmlns:xlink="http://www.w3.org/1999/xlink" x="0px" y="0px"
	 viewBox="0 0 512 512" style="enable-background:new 0 0 512 512;" xml:space="preserve">
<style type="text/css">
	.st0{fill:#607D8B;}
	.st1{fill:#FAFAFA;}
</style>
<path class="st0" d="M512,256c0,141.4-114.6,256-256,256S0,397.4,0,256S114.6,0,256,0S512,114.6,512,256z"/>
<path class="st1" d="M356.4,313.8l-85.3,85.3c-8.3,8.3-21.8,8.3-30.2,0l-85.3-85.3c-6.1-6.1-7.9-15.3-4.6-23.3
	c3.3-8,11.1-13.2,19.7-13.2h64V128c0-11.8,9.6-21.3,21.3-21.3s21.3,9.6,21.3,21.3v149.3h64c8.6,0,16.4,5.2,19.7,13.2
	C364.4,298.5,362.5,307.6,356.4,313.8z"/>
</svg>
